<svg xmlns="http://www.w3.org/2000/svg" xmlns:xlink="http://www.w3.org/1999/xlink" id="Capa_1"
    x="0px" y="0px" viewBox="0 0 948.5 361" style="enable-background:new 0 0 948.5 361;"
    xml:space="preserve"><style type="text/css">	.st0{fill:#D90119;}</style><path class="st0" d="M474.8,358.5c-49,0-94.9-18.4-129.3-51.9c-34.4-33.4-53.3-78-53.3-125.6c0-47.5,18.9-92.1,53.3-125.6 C379.9,22,425.8,3.6,474.8,3.6c38,0,72.5,10.3,102.4,30.6l1.5,1l-1.2,1.3c-20.2,21.2-36,47.8-45.7,76.9l-0.7,2l-1.7-1.3 c-16.2-13-34.9-19.6-55.6-19.6c-23.9,0-46.2,8.9-62.8,25c-16.6,16.1-25.7,37.5-25.7,60.5c0,47.1,39.7,85.4,88.6,85.4 c20.1,0,39.8-7,55.6-19.6l1.7-1.3l0.7,2c9,27.1,24,52.9,45.8,79.1l1.1,1.3l-1.4,0.9C547.6,347.6,511.2,358.5,474.8,358.5z  M474.8,6.6c-48.2,0-93.4,18.1-127.3,51c-33.8,32.9-52.4,76.7-52.4,123.4c0,46.7,18.6,90.6,52.4,123.4c33.9,32.9,79,51,127.3,51 c35.3,0,70.5-10.4,99.4-29.2c-20.9-25.4-35.5-50.5-44.6-76.8c-16,12.2-35.8,18.9-55.8,18.9c-50.5,0-91.6-39.7-91.6-88.4 c0-23.7,9.5-46,26.6-62.6c17.2-16.7,40.3-25.8,64.9-25.8c20.7,0,39.4,6.4,55.8,18.9c9.7-28.1,25-53.9,44.5-74.8 C545,16.4,511.6,6.6,474.8,6.6z M757.6,357.4c-49,0-94.9-18.4-129.3-51.9c-34.4-33.4-53.3-78-53.3-125.6s18.9-92.1,53.3-125.6 c34.4-33.5,80.4-51.9,129.3-51.9c38,0,72.5,10.3,102.4,30.6l1.5,1l-1.2,1.3c-20.2,21.2-36,47.8-45.7,76.9l-0.7,2l-1.7-1.3 c-16.2-13-34.9-19.6-55.6-19.6c-23.9,0-46.2,8.9-62.8,25C677.1,134.5,668,156,668,178.9c0,47.1,39.7,85.4,88.6,85.4 c23.9,0,46.2-8.9,62.8-25c16.6-16.1,25.7-37.5,25.7-60.5h1.5v-0.5h93.7v1.5c0,47.5-18.9,92.1-53.3,125.6 C852.5,339,806.6,357.4,757.6,357.4z M757.6,5.5c-48.2,0-93.4,18.1-127.3,51c-33.8,32.9-52.4,76.7-52.4,123.4s18.6,90.6,52.4,123.4 c33.9,32.9,79,51,127.3,51c48.2,0,93.4-18.1,127.3-51c33.5-32.5,52-75.8,52.4-121.9h-89.2c-0.7,22.8-10,44-26.6,60.1 c-17.2,16.7-40.3,25.8-64.9,25.8c-50.5,0-91.6-39.7-91.6-88.4c0-23.7,9.5-46,26.6-62.6c17.2-16.7,40.3-25.8,64.9-25.8 c20.7,0,39.4,6.4,55.8,18.9c9.7-28.1,25-53.9,44.5-74.8C827.8,15.3,794.4,5.5,757.6,5.5z M191,356.4c-49,0-94.9-18.4-129.3-51.9 c-34.4-33.4-53.3-78-53.3-125.6c0-47.1,18.6-91.3,52.3-124.3c34.6-33.9,80.9-52,130.4-51c38,0,72.5,10.3,102.4,30.6l1.5,1l-1.2,1.3 c-20.2,21.2-36,47.8-45.7,76.9l-0.7,2l-1.7-1.3c-16.2-13-34.9-19.6-55.6-19.6c-23.9,0-46.2,8.9-62.8,25 c-16.6,16.1-25.7,37.5-25.7,60.5c0,47.1,39.7,85.4,88.6,85.4c20.1,0,39.8-7,55.6-19.6l1.6-1.3l0.7,1.9c11.2,30.3,26.2,55.5,45.8,77 l1.2,1.3l-1.5,1C263.8,345.5,227.4,356.4,191,356.4z M187,6.5c-47.2,0-91.2,17.7-124.3,50.2c-33.2,32.5-51.4,75.9-51.4,122.2 c0,46.7,18.6,90.6,52.4,123.4c33.9,32.9,79,51,127.3,51c35.2,0,70.4-10.3,99.3-29.2c-18.9-21.1-33.5-45.6-44.5-74.8 c-16,12.2-35.8,19-55.9,19c-50.5,0-91.6-39.7-91.6-88.4c0-23.7,9.5-46,26.6-62.6c17.2-16.7,40.3-25.8,64.9-25.8 c20.7,0,39.4,6.4,55.8,18.9c9.7-28.1,25-53.9,44.5-74.8C261.1,16.4,227.7,6.6,191,6.6C189.7,6.5,188.3,6.5,187,6.5z"></path></svg>