<?xml version="1.0" encoding="utf-8" ?>
<svg xmlns="http://www.w3.org/2000/svg" xmlns:xlink="http://www.w3.org/1999/xlink" width="512" height="512">
	<path fill="#909CB0" fill-opacity="0.98823529" transform="scale(0.666667 0.666667)" d="M631.476 243.696L635.812 256.49C636.691 259.099 639.113 263.749 638.029 266.425L637.34 267.846C636.089 266.645 636.236 266.515 636.083 264.868C635.587 263.701 635.454 262.489 634.875 261.37L633.199 261.182L632.608 260.438C633.242 257.358 632.943 255.132 632.307 252.099C631.558 251.618 630.961 251.252 630.457 250.488L630.184 250.005C630.158 248.185 629.785 245.602 630.573 243.954L631.476 243.696Z"/>
	<path fill="#020B28" transform="scale(0.666667 0.666667)" d="M320.905 625.735C322.089 628.228 323.616 631.009 324.293 633.681C324.718 635.356 324.504 636.948 325.152 638.603L325.304 639.04L325.036 639.43C324.469 640.534 324.587 642.144 324.519 643.367L323.871 651.924C323.469 655.354 322.854 658.796 322.01 662.147C318.707 675.263 313.107 688.639 305.764 699.996L297.261 711.873C290.872 721.613 285.753 731.392 274.304 736.059C267.411 738.868 259.804 738.796 252.977 735.829C246.164 732.868 240.899 727.724 238.233 720.746C235.25 712.938 233.623 705.107 229.457 697.718C225.979 691.548 221.436 686.052 217.208 680.397C209.937 670.672 202.84 660.352 198.076 649.126C198.318 648.154 198.772 647.763 199.447 647.063C200.814 648.593 201.024 651.857 203.156 652.142L202.793 653.235L203.287 653.581C204.212 654.3 204.478 655.761 204.802 656.833L205.655 657.026L207.629 660.258C208.339 660.355 208.699 660.334 209.111 661.018L209.281 661.465C209.693 662.455 212.358 664.676 213.473 665.133L213.902 665.271L214.141 665.721C215.141 667.543 215.869 667.779 217.371 668.956C217.931 669.395 217.648 669.243 218.437 669.381L219.386 670.367L219.74 669.934L218.81 668.602L219.142 667.496C224.906 674.363 230.431 682.141 234.872 689.917L244.527 708.215C246.594 711.89 248.696 715.613 251.769 718.548C255.608 722.215 260.271 723.258 265.431 723.08C276.864 722.685 286.71 713.516 294.022 705.554C308.386 689.91 318.916 668.471 320.12 647.109C320.474 640.84 319.468 634.696 319.554 628.5C319.574 627.07 319.991 626.698 320.905 625.735Z"/>
	<path fill="#2C2E43" transform="scale(0.666667 0.666667)" d="M235.62 586.758C253.787 581.768 272.538 581.641 289.275 591.216C300.319 597.535 308.68 606.914 315.988 617.152C317.657 619.489 320.026 622.541 320.829 625.321L320.905 625.735C319.991 626.698 319.574 627.07 319.554 628.5C319.468 634.696 320.474 640.84 320.12 647.109C318.916 668.471 308.386 689.91 294.022 705.554C286.71 713.516 276.864 722.685 265.431 723.08C260.271 723.258 255.608 722.215 251.769 718.548C248.696 715.613 246.594 711.89 244.527 708.215L234.872 689.917C230.431 682.141 224.906 674.363 219.142 667.496C218.873 666.365 216.78 664.133 216.004 663.076L208.45 652.812C205.927 649.455 203.548 646.646 201.807 642.749C201.83 640.166 201.031 637.609 200.636 635.06C199.461 627.473 199.969 619.63 203.205 612.609C208.886 600.283 220.546 592.128 232.975 587.622L235.62 586.758Z"/>
	<path fill="#EFF2F2" transform="scale(0.666667 0.666667)" d="M265.135 624.938C266.878 624.514 269.952 624.516 271.63 625.142L272.043 625.312C274.54 626.304 276.291 628.099 277.545 630.45C279.28 633.701 280.209 638.518 279.056 642.117C278.111 645.067 276.466 647.21 273.658 648.562L273.118 648.677C269.907 649.163 266.683 648.709 264.215 646.483C261.717 644.231 259.616 640.559 259.483 637.121L259.471 636.562C259.436 635.289 259.367 633.985 259.587 632.724C260.204 629.184 262.306 626.961 265.135 624.938Z"/>
	<path fill="#020B28" transform="scale(0.666667 0.666667)" d="M232.975 587.622L235.62 586.758L235.94 586.964C236.614 587.391 237.163 587.715 237.92 587.979C246.26 590.884 257.69 608.676 261.356 616.483C262.486 618.89 263.243 621.396 264.01 623.936C260.743 620.447 256.654 613.229 251.438 613.127C250.018 613.099 247.44 613.509 246.436 614.592C243.447 617.82 243.073 622.838 242.215 626.954C242.147 627.281 241.852 629.318 241.688 629.48C241.503 629.662 241.188 629.617 240.938 629.686L240.733 629.28C240.018 627.862 241.003 622.957 241.109 621.08C241.291 617.841 241.395 614.295 240.992 611.073C240.332 605.798 238.485 600.51 236.42 595.636C235.274 592.932 233.842 590.449 232.975 587.622Z"/>
	<path fill="#EFF2F2" transform="scale(0.666667 0.666667)" d="M241.625 632.684C243.307 632.425 244.871 632.523 246.486 633.107C250.148 634.434 252.839 638.397 254.328 641.776C255.965 645.49 256.232 649.094 254.691 652.865C253.476 655.841 251.388 657.23 248.547 658.401C247.072 658.276 245.555 658.125 244.125 657.727C240.805 656.803 238.089 653.91 236.473 650.949C234.646 647.602 233.811 643.642 235 639.941C236.228 636.118 238.161 634.463 241.625 632.684Z"/>
	<path fill="#2C2E43" transform="scale(0.666667 0.666667)" d="M106.993 252.653C106.779 251.754 107.843 250.265 107.658 249.521C107.654 249.503 106.885 249.202 106.711 249.14C103.592 248.021 100.5 247.108 97.439 245.8C76.1384 236.696 53.7508 226.335 42.0599 205.166C36.256 194.656 33.103 182.712 30.8065 170.988C29.3167 163.383 27.7782 155.74 27.1653 148.004C25.9895 133.164 27.8242 117.762 32.0313 103.508C40.2055 75.8131 58.6579 51.3056 84.1495 37.4955C101.368 28.1675 123.343 22.0776 143.031 24.2014C147.794 24.7152 152.915 25.9874 157.497 27.3809C188.499 36.8092 214.872 58.9619 234.756 84.0452C238.913 89.2896 242.991 94.0358 246.141 99.9902L247.846 100.317L232.688 107.986C229.573 109.584 226.305 111.064 223.31 112.872C212.433 119.439 202.105 127.227 192.245 135.221C172.599 151.148 153.585 169.626 139.206 190.549C131.406 201.898 124.285 214.153 118.298 226.563L112.301 240.326L108.026 250.271C107.907 250.566 107.152 252.619 106.993 252.653Z"/>
	<path fill="#020B28" transform="scale(0.666667 0.666667)" d="M484.866 98.1625C485.485 98.2219 487.549 98.5961 487.947 98.2434C488.874 97.4218 489.42 95.9251 490.227 94.9229L503.172 78.934C519.996 59.1455 538.162 39.2023 562.466 28.5778C574.307 23.4014 587.014 20.9905 599.907 21.0224C620.767 21.074 645.094 28.7714 660.036 43.8001C665.574 49.3697 670.05 55.9874 674.187 62.625C687.085 83.3154 697.195 107.189 700.28 131.527C700.936 136.704 700.599 142.434 700.558 147.677C700.441 162.69 696.617 177.479 690.858 191.282C686.966 200.612 682.396 209.382 675.121 216.547C665.221 226.298 651.826 232.849 639.374 238.735C637.459 239.64 632.448 241.45 631.498 243.377L631.476 243.696L630.573 243.954C629.785 245.602 630.158 248.185 630.184 250.005L630.457 250.488C630.961 251.252 631.558 251.618 632.307 252.099C632.943 255.132 633.242 257.358 632.608 260.438L633.199 261.182L634.875 261.37C635.454 262.489 635.587 263.701 636.083 264.868C635.859 265.597 635.8 266.075 635.25 266.625L634.688 266.25C634.796 265.584 634.836 265.95 634.312 265.211L633.188 265.684L616.932 255.011C609.899 251.219 602.709 247.889 595.12 245.365C587.594 242.861 579.662 241.06 571.98 239.074C568.764 212.762 561.496 186.922 550.286 162.921C546.349 154.494 542.153 146.197 536.841 138.541L536.98 137.966C536.32 135.976 537.6 134.567 538.503 132.733C536.827 130.862 534.785 129.213 532.777 127.713L530.677 125.685L525.071 121.678L523.334 121.195C521.857 119.447 519.581 117.89 517.705 116.592C512.549 113.022 506.853 110.189 501.383 107.129C495.973 104.102 490.535 100.669 484.866 98.1625ZM551.747 129.295C550.308 129.597 549.008 129.802 547.757 130.618C546.989 131.967 546.206 133.214 545.25 134.438L546.375 135.188C544.822 135.742 544.648 133.946 542.622 135.525L540.9 134.574C539.98 136.054 539.189 137.723 537.808 138.809L536.98 137.966L536.841 138.541C542.153 146.197 546.349 154.494 550.286 162.921C561.496 186.922 568.764 212.762 571.98 239.074C579.662 241.06 587.594 242.861 595.12 245.365C602.709 247.889 609.899 251.219 616.932 255.011L633.188 265.684L634.312 265.211C634.836 265.95 634.796 265.584 634.688 266.25L635.25 266.625C635.8 266.075 635.859 265.597 636.083 264.868C635.587 263.701 635.454 262.489 634.875 261.37L633.199 261.182L632.608 260.438C633.242 257.358 632.943 255.132 632.307 252.099C631.558 251.618 630.961 251.252 630.457 250.488L630.184 250.005C630.158 248.185 629.785 245.602 630.573 243.954L631.476 243.696L631.498 243.377C630.265 242.034 629.301 238.71 628.474 237L622.185 224.728C623.297 222.688 625.751 221.373 627.69 220.202C630.907 218.261 634.091 216.412 637.133 214.194C640.353 211.846 643.345 209.317 646.115 206.452C652.831 199.506 656.641 190.666 659.547 181.575C664.468 166.179 666.257 151.098 666 134.983C665.668 114.177 659.31 91.7264 647.96 74.25C644.974 69.6511 641.615 65.0065 637.672 61.1813L637.563 62.1882C636.972 61.6149 636.586 61.2842 636.188 60.5587C635.373 61.3654 636.027 61.5796 635.645 62.3955C635.551 62.5947 632.095 63.6775 631.676 63.8456C629.634 63.3302 627.785 62.8323 625.673 62.7364C624.813 63.9507 623.876 65.076 623.115 66.3564C622.545 67.3169 621.939 67.9049 621.108 68.6307L620.778 68.9262C618.393 71.0213 615.026 72.2976 612.275 73.8956C608.645 76.0039 605.814 78.6631 602.893 81.62L597.417 86.3438C596.021 87.7299 594.321 88.777 592.894 90.1109C588.481 94.2358 584.464 99.0909 579.627 102.736C578.01 103.955 576.897 105.577 575.358 106.881C574.531 107.581 573.877 108.308 573.237 109.177L569.565 113.567L566.479 117.37L563.659 121.312C560.24 125.724 557.738 127.875 552.251 129.438L551.747 129.295ZM525.071 121.678L530.677 125.685L532.777 127.713C534.785 129.213 536.827 130.862 538.503 132.733C537.6 134.567 536.32 135.976 536.98 137.966L537.808 138.809C539.189 137.723 539.98 136.054 540.9 134.574L542.622 135.525C544.648 133.946 544.822 135.742 546.375 135.188L545.25 134.438C546.206 133.214 546.989 131.967 547.757 130.618C549.008 129.802 550.308 129.597 551.747 129.295L552.251 129.438C557.738 127.875 560.24 125.724 563.659 121.312L566.479 117.37L569.565 113.567L573.237 109.177C573.877 108.308 574.531 107.581 575.358 106.881C576.897 105.577 578.01 103.955 579.627 102.736C584.464 99.0909 588.481 94.2358 592.894 90.1109C594.321 88.777 596.021 87.7299 597.417 86.3438L602.893 81.62C605.814 78.6631 608.645 76.0039 612.275 73.8956C615.026 72.2976 618.393 71.0213 620.778 68.9262L621.108 68.6307C621.939 67.9049 622.545 67.3169 623.115 66.3564C623.876 65.076 624.813 63.9507 625.673 62.7364C627.785 62.8323 629.634 63.3302 631.676 63.8456C632.095 63.6775 635.551 62.5947 635.645 62.3955C636.027 61.5796 635.373 61.3654 636.188 60.5587C636.586 61.2842 636.972 61.6149 637.563 62.1882L637.672 61.1813C637.036 59.8374 634.101 57.5192 632.861 56.616L627.703 52.3597L623.625 49.3628C614.171 42.6924 602.778 40.4796 591.447 42.3862C588.939 42.8084 586.638 43.7134 584.243 44.5162C569.524 49.4489 557.156 59.6379 546.273 70.4211C539.52 77.1126 533.15 84.161 527.738 92.0037C525.928 94.6275 515.64 110.78 516.041 112.697C516.749 116.082 522.622 119.236 525.071 121.678Z"/>
	<defs>
		<linearGradient id="gradient_0" gradientUnits="userSpaceOnUse" x1="549.87646" y1="65.476562" x2="586.82684" y2="96.274979">
			<stop offset="0" stop-color="#2C2E42" stop-opacity="0.090196081"/>
			<stop offset="1" stop-color="#2B2D42" stop-opacity="0.54901963"/>
		</linearGradient>
	</defs>
	<path fill="url(#gradient_0)" transform="scale(0.666667 0.666667)" d="M525.071 121.678C522.622 119.236 516.749 116.082 516.041 112.697C515.64 110.78 525.928 94.6275 527.738 92.0037C533.15 84.161 539.52 77.1126 546.273 70.4211C557.156 59.6379 569.524 49.4489 584.243 44.5162C586.638 43.7134 588.939 42.8084 591.447 42.3862C602.778 40.4796 614.171 42.6924 623.625 49.3628L627.703 52.3597L632.861 56.616C634.101 57.5192 637.036 59.8374 637.672 61.1813L637.563 62.1882C636.972 61.6149 636.586 61.2842 636.188 60.5587C635.373 61.3654 636.027 61.5796 635.645 62.3955C635.551 62.5947 632.095 63.6775 631.676 63.8456C629.634 63.3302 627.785 62.8323 625.673 62.7364C624.813 63.9507 623.876 65.076 623.115 66.3564C622.545 67.3169 621.939 67.9049 621.108 68.6307L620.778 68.9262C618.393 71.0213 615.026 72.2976 612.275 73.8956C608.645 76.0039 605.814 78.6631 602.893 81.62L597.417 86.3438C596.021 87.7299 594.321 88.777 592.894 90.1109C588.481 94.2358 584.464 99.0909 579.627 102.736C578.01 103.955 576.897 105.577 575.358 106.881C574.531 107.581 573.877 108.308 573.237 109.177L569.565 113.567L566.479 117.37L563.659 121.312C560.24 125.724 557.738 127.875 552.251 129.438L551.747 129.295C550.308 129.597 549.008 129.802 547.757 130.618C546.989 131.967 546.206 133.214 545.25 134.438L546.375 135.188C544.822 135.742 544.648 133.946 542.622 135.525L540.9 134.574C539.98 136.054 539.189 137.723 537.808 138.809L536.98 137.966C536.32 135.976 537.6 134.567 538.503 132.733C536.827 130.862 534.785 129.213 532.777 127.713L530.677 125.685L525.071 121.678ZM627.703 52.3597L627.194 52.6708C626.634 53.0384 626.558 53.4305 626.136 53.7409C625.487 54.218 625.093 54.0143 624.372 53.9417L624.529 54.7709L623.854 54.5258C623.137 54.2563 622.689 53.9334 622.125 53.4079C620.416 53.3392 620.088 53.675 618.646 54.5104C618.026 56.0207 618.742 56.1472 618.742 57.5576C618.742 59.7437 616.222 61.1595 614.509 61.9864C611.835 63.2768 609.078 65.6776 606.775 67.5547C599.198 73.728 591.906 80.6601 583.974 86.3383C575.067 92.715 567.237 101.805 561.601 111.201L561.337 111.626L559.71 115.031C558.012 118.107 557.301 120.694 554.383 122.93C553.551 123.567 554.548 122.765 553.875 123.566C553.35 124.191 552.822 124.483 552.057 124.688L551.468 125.372C551.436 126.289 551.523 126.688 551.059 127.5L550.498 128.596C549.228 128.806 546.43 128.42 545.557 129.375C544.234 130.819 545.037 130.977 542.812 131.88C542.433 131.818 541.243 131.488 540.938 131.573C539.471 131.984 540.385 132.567 538.729 131.655C536.306 129.396 533.708 127.073 530.677 125.685L532.777 127.713C534.785 129.213 536.827 130.862 538.503 132.733C537.6 134.567 536.32 135.976 536.98 137.966L537.808 138.809C539.189 137.723 539.98 136.054 540.9 134.574L542.622 135.525C544.648 133.946 544.822 135.742 546.375 135.188L545.25 134.438C546.206 133.214 546.989 131.967 547.757 130.618C549.008 129.802 550.308 129.597 551.747 129.295L552.251 129.438C557.738 127.875 560.24 125.724 563.659 121.312L566.479 117.37L569.565 113.567L573.237 109.177C573.877 108.308 574.531 107.581 575.358 106.881C576.897 105.577 578.01 103.955 579.627 102.736C584.464 99.0909 588.481 94.2358 592.894 90.1109C594.321 88.777 596.021 87.7299 597.417 86.3438L602.893 81.62C605.814 78.6631 608.645 76.0039 612.275 73.8956C615.026 72.2976 618.393 71.0213 620.778 68.9262L621.108 68.6307C621.939 67.9049 622.545 67.3169 623.115 66.3564C623.876 65.076 624.813 63.9507 625.673 62.7364C627.785 62.8323 629.634 63.3302 631.676 63.8456C632.095 63.6775 635.551 62.5947 635.645 62.3955C636.027 61.5796 635.373 61.3654 636.188 60.5587C636.586 61.2842 636.972 61.6149 637.563 62.1882L637.672 61.1813C637.036 59.8374 634.101 57.5192 632.861 56.616L627.703 52.3597ZM538.729 131.655C540.385 132.567 539.471 131.984 540.938 131.573C541.243 131.488 542.433 131.818 542.812 131.88C545.037 130.977 544.234 130.819 545.557 129.375C546.43 128.42 549.228 128.806 550.498 128.596L551.059 127.5C551.523 126.688 551.436 126.289 551.468 125.372C550.856 125.449 550.574 125.503 550.043 125.823C547.555 127.324 542.31 123.541 541.38 126.609C541.069 127.635 541.135 128.692 541.158 129.75C540.41 130.5 539.635 131.106 538.729 131.655ZM623.625 49.3628C622.804 50.3005 622.782 50.5089 621.483 50.6077C619.887 50.729 618.789 49.6162 617.25 50.8125C618.546 52.0951 620.763 51.4325 622.312 52.0385C622.935 52.282 623.882 53.43 624.372 53.9417C625.093 54.0143 625.487 54.218 626.136 53.7409C626.558 53.4305 626.634 53.0384 627.194 52.6708L627.703 52.3597L623.625 49.3628Z"/>
	<defs>
		<linearGradient id="gradient_1" gradientUnits="userSpaceOnUse" x1="623.98883" y1="52.989994" x2="625.13794" y2="51.257282">
			<stop offset="0" stop-color="#2A2D40" stop-opacity="0.50980395"/>
			<stop offset="1" stop-color="#2A2D41" stop-opacity="0.5411765"/>
		</linearGradient>
	</defs>
	<path fill="url(#gradient_1)" transform="scale(0.666667 0.666667)" d="M623.625 49.3628L627.703 52.3597L627.194 52.6708C626.634 53.0384 626.558 53.4305 626.136 53.7409C625.487 54.218 625.093 54.0143 624.372 53.9417C623.882 53.43 622.935 52.282 622.312 52.0385C620.763 51.4325 618.546 52.0951 617.25 50.8125C618.789 49.6162 619.887 50.729 621.483 50.6077C622.782 50.5089 622.804 50.3005 623.625 49.3628Z"/>
	<defs>
		<linearGradient id="gradient_2" gradientUnits="userSpaceOnUse" x1="542.04388" y1="127.48238" x2="543.93781" y2="128.57457">
			<stop offset="0" stop-color="#2B2D41" stop-opacity="0.48627451"/>
			<stop offset="1" stop-color="#2B2D41" stop-opacity="0.53333336"/>
		</linearGradient>
	</defs>
	<path fill="url(#gradient_2)" transform="scale(0.666667 0.666667)" d="M538.729 131.655C539.635 131.106 540.41 130.5 541.158 129.75C541.135 128.692 541.069 127.635 541.38 126.609C542.31 123.541 547.555 127.324 550.043 125.823C550.574 125.503 550.856 125.449 551.468 125.372C551.436 126.289 551.523 126.688 551.059 127.5L550.498 128.596C549.228 128.806 546.43 128.42 545.557 129.375C544.234 130.819 545.037 130.977 542.812 131.88C542.433 131.818 541.243 131.488 540.938 131.573C539.471 131.984 540.385 132.567 538.729 131.655Z"/>
	<defs>
		<linearGradient id="gradient_3" gradientUnits="userSpaceOnUse" x1="584.63904" y1="84.966805" x2="596.0788" y2="97.631775">
			<stop offset="0" stop-color="#2A2C41" stop-opacity="0.57254905"/>
			<stop offset="1" stop-color="#2A2C41" stop-opacity="0.70588237"/>
		</linearGradient>
	</defs>
	<path fill="url(#gradient_3)" transform="scale(0.666667 0.666667)" d="M627.703 52.3597L632.861 56.616C634.101 57.5192 637.036 59.8374 637.672 61.1813L637.563 62.1882C636.972 61.6149 636.586 61.2842 636.188 60.5587C635.373 61.3654 636.027 61.5796 635.645 62.3955C635.551 62.5947 632.095 63.6775 631.676 63.8456C629.634 63.3302 627.785 62.8323 625.673 62.7364C624.813 63.9507 623.876 65.076 623.115 66.3564C622.545 67.3169 621.939 67.9049 621.108 68.6307L620.778 68.9262C618.393 71.0213 615.026 72.2976 612.275 73.8956C608.645 76.0039 605.814 78.6631 602.893 81.62L597.417 86.3438C596.021 87.7299 594.321 88.777 592.894 90.1109C588.481 94.2358 584.464 99.0909 579.627 102.736C578.01 103.955 576.897 105.577 575.358 106.881C574.531 107.581 573.877 108.308 573.237 109.177L569.565 113.567L566.479 117.37L563.659 121.312C560.24 125.724 557.738 127.875 552.251 129.438L551.747 129.295C550.308 129.597 549.008 129.802 547.757 130.618C546.989 131.967 546.206 133.214 545.25 134.438L546.375 135.188C544.822 135.742 544.648 133.946 542.622 135.525L540.9 134.574C539.98 136.054 539.189 137.723 537.808 138.809L536.98 137.966C536.32 135.976 537.6 134.567 538.503 132.733C536.827 130.862 534.785 129.213 532.777 127.713L530.677 125.685C533.708 127.073 536.306 129.396 538.729 131.655C540.385 132.567 539.471 131.984 540.938 131.573C541.243 131.488 542.433 131.818 542.812 131.88C545.037 130.977 544.234 130.819 545.557 129.375C546.43 128.42 549.228 128.806 550.498 128.596L551.059 127.5C551.523 126.688 551.436 126.289 551.468 125.372L552.057 124.688C552.822 124.483 553.35 124.191 553.875 123.566C554.548 122.765 553.551 123.567 554.383 122.93C557.301 120.694 558.012 118.107 559.71 115.031L561.337 111.626L561.601 111.201C567.237 101.805 575.067 92.715 583.974 86.3383C591.906 80.6601 599.198 73.728 606.775 67.5547C609.078 65.6776 611.835 63.2768 614.509 61.9864C616.222 61.1595 618.742 59.7437 618.742 57.5576C618.742 56.1472 618.026 56.0207 618.646 54.5104C620.088 53.675 620.416 53.3392 622.125 53.4079C622.689 53.9334 623.137 54.2563 623.854 54.5258L624.529 54.7709L624.372 53.9417C625.093 54.0143 625.487 54.218 626.136 53.7409C626.558 53.4305 626.634 53.0384 627.194 52.6708L627.703 52.3597ZM627.703 52.3597L627.194 52.6708C626.634 53.0384 626.558 53.4305 626.136 53.7409C625.487 54.218 625.093 54.0143 624.372 53.9417L624.529 54.7709L625.155 55.0632C626.02 55.4902 626.319 56.0146 626.816 56.8125C627.932 57.363 628.765 57.4836 630 57.5625L630.303 57.1695C630.783 56.5907 630.579 56.7892 631.316 56.4375L631.875 57.0702C632.596 56.874 632.269 57.0293 632.861 56.616L627.703 52.3597ZM540.9 134.574L542.622 135.525C544.648 133.946 544.822 135.742 546.375 135.188L545.25 134.438C546.206 133.214 546.989 131.967 547.757 130.618C549.008 129.802 550.308 129.597 551.747 129.295C550.31 128.831 548.501 128.864 547.158 129.64C546.18 130.204 545.571 131.437 545.013 132.381C544.701 132.5 543.844 132.949 543.559 132.938C542.074 132.878 541.734 131.617 540.152 133.125C540.202 133.928 540.408 133.973 540.9 134.574Z"/>
	<path fill="#2C2E43" fill-opacity="0.65490198" transform="scale(0.666667 0.666667)" d="M540.9 134.574C540.408 133.973 540.202 133.928 540.152 133.125C541.734 131.617 542.074 132.878 543.559 132.938C543.844 132.949 544.701 132.5 545.013 132.381C545.571 131.437 546.18 130.204 547.158 129.64C548.501 128.864 550.31 128.831 551.747 129.295C550.308 129.597 549.008 129.802 547.757 130.618C546.989 131.967 546.206 133.214 545.25 134.438L546.375 135.188C544.822 135.742 544.648 133.946 542.622 135.525L540.9 134.574Z"/>
	<path fill="#2C2E43" fill-opacity="0.55686277" transform="scale(0.666667 0.666667)" d="M627.703 52.3597L632.861 56.616C632.269 57.0293 632.596 56.874 631.875 57.0702L631.316 56.4375C630.579 56.7892 630.783 56.5907 630.303 57.1695L630 57.5625C628.765 57.4836 627.932 57.363 626.816 56.8125C626.319 56.0146 626.02 55.4902 625.155 55.0632L624.529 54.7709L624.372 53.9417C625.093 54.0143 625.487 54.218 626.136 53.7409C626.558 53.4305 626.634 53.0384 627.194 52.6708L627.703 52.3597Z"/>
	<defs>
		<linearGradient id="gradient_4" gradientUnits="userSpaceOnUse" x1="585.99036" y1="89.336304" x2="659.51288" y2="198.08601">
			<stop offset="0" stop-color="#2A2D41" stop-opacity="0.71764708"/>
			<stop offset="1" stop-color="#2C2D43"/>
		</linearGradient>
	</defs>
	<path fill="url(#gradient_4)" transform="scale(0.666667 0.666667)" d="M551.747 129.295L552.251 129.438C557.738 127.875 560.24 125.724 563.659 121.312L566.479 117.37L569.565 113.567L573.237 109.177C573.877 108.308 574.531 107.581 575.358 106.881C576.897 105.577 578.01 103.955 579.627 102.736C584.464 99.0909 588.481 94.2358 592.894 90.1109C594.321 88.777 596.021 87.7299 597.417 86.3438L602.893 81.62C605.814 78.6631 608.645 76.0039 612.275 73.8956C615.026 72.2976 618.393 71.0213 620.778 68.9262L621.108 68.6307C621.939 67.9049 622.545 67.3169 623.115 66.3564C623.876 65.076 624.813 63.9507 625.673 62.7364C627.785 62.8323 629.634 63.3302 631.676 63.8456C632.095 63.6775 635.551 62.5947 635.645 62.3955C636.027 61.5796 635.373 61.3654 636.188 60.5587C636.586 61.2842 636.972 61.6149 637.563 62.1882L637.672 61.1813C641.615 65.0065 644.974 69.6511 647.96 74.25C659.31 91.7264 665.668 114.177 666 134.983C666.257 151.098 664.468 166.179 659.547 181.575C656.641 190.666 652.831 199.506 646.115 206.452C643.345 209.317 640.353 211.846 637.133 214.194C634.091 216.412 630.907 218.261 627.69 220.202C625.751 221.373 623.297 222.688 622.185 224.728L628.474 237C629.301 238.71 630.265 242.034 631.498 243.377L631.476 243.696L630.573 243.954C629.785 245.602 630.158 248.185 630.184 250.005L630.457 250.488C630.961 251.252 631.558 251.618 632.307 252.099C632.943 255.132 633.242 257.358 632.608 260.438L633.199 261.182L634.875 261.37C635.454 262.489 635.587 263.701 636.083 264.868C635.859 265.597 635.8 266.075 635.25 266.625L634.688 266.25C634.796 265.584 634.836 265.95 634.312 265.211L633.188 265.684L616.932 255.011C609.899 251.219 602.709 247.889 595.12 245.365C587.594 242.861 579.662 241.06 571.98 239.074C568.764 212.762 561.496 186.922 550.286 162.921C546.349 154.494 542.153 146.197 536.841 138.541L536.98 137.966L537.808 138.809C539.189 137.723 539.98 136.054 540.9 134.574L542.622 135.525C544.648 133.946 544.822 135.742 546.375 135.188L545.25 134.438C546.206 133.214 546.989 131.967 547.757 130.618C549.008 129.802 550.308 129.597 551.747 129.295ZM540.9 134.574C539.98 136.054 539.189 137.723 537.808 138.809L536.98 137.966L536.841 138.541C542.153 146.197 546.349 154.494 550.286 162.921C561.496 186.922 568.764 212.762 571.98 239.074C579.662 241.06 587.594 242.861 595.12 245.365C602.709 247.889 609.899 251.219 616.932 255.011L633.188 265.684L634.312 265.211C634.836 265.95 634.796 265.584 634.688 266.25L635.25 266.625C635.8 266.075 635.859 265.597 636.083 264.868C635.587 263.701 635.454 262.489 634.875 261.37L633.199 261.182L632.608 260.438C633.242 257.358 632.943 255.132 632.307 252.099C631.558 251.618 630.961 251.252 630.457 250.488L630.184 250.005C630.158 248.185 629.785 245.602 630.573 243.954L631.476 243.696L631.498 243.377C630.265 242.034 629.301 238.71 628.474 237L622.185 224.728C621.524 224.36 617.268 216.719 616.417 215.433L596.587 187.664C588.279 176.729 578.75 165.938 568.178 157.128L568.198 157.096C564.595 152.914 559.176 149.196 554.792 145.867L552.611 143.945L543.874 136.848L542.622 135.525L540.9 134.574Z"/>
	<defs>
		<linearGradient id="gradient_5" gradientUnits="userSpaceOnUse" x1="607.17218" y1="184.56256" x2="570.02271" y2="236.36488">
			<stop offset="0" stop-color="#8C98AC" stop-opacity="0.85490197"/>
			<stop offset="1" stop-color="#8F99AE"/>
		</linearGradient>
	</defs>
	<path fill="url(#gradient_5)" transform="scale(0.666667 0.666667)" d="M540.9 134.574L542.622 135.525L543.874 136.848L552.611 143.945L554.792 145.867C559.176 149.196 564.595 152.914 568.198 157.096L568.178 157.128C578.75 165.938 588.279 176.729 596.587 187.664L616.417 215.433C617.268 216.719 621.524 224.36 622.185 224.728L628.474 237C629.301 238.71 630.265 242.034 631.498 243.377L631.476 243.696L630.573 243.954C629.785 245.602 630.158 248.185 630.184 250.005L630.457 250.488C630.961 251.252 631.558 251.618 632.307 252.099C632.943 255.132 633.242 257.358 632.608 260.438L633.199 261.182L634.875 261.37C635.454 262.489 635.587 263.701 636.083 264.868C635.859 265.597 635.8 266.075 635.25 266.625L634.688 266.25C634.796 265.584 634.836 265.95 634.312 265.211L633.188 265.684L616.932 255.011C609.899 251.219 602.709 247.889 595.12 245.365C587.594 242.861 579.662 241.06 571.98 239.074C568.764 212.762 561.496 186.922 550.286 162.921C546.349 154.494 542.153 146.197 536.841 138.541L536.98 137.966L537.808 138.809C539.189 137.723 539.98 136.054 540.9 134.574ZM540.9 134.574C539.98 136.054 539.189 137.723 537.808 138.809L545.336 150.795L546.004 150.624C548.991 149.118 551.897 147.707 554.792 145.867L552.611 143.945L543.874 136.848L542.622 135.525L540.9 134.574ZM554.792 145.867C551.897 147.707 548.991 149.118 546.004 150.624L545.336 150.795C546.201 153.007 547.412 155.126 548.669 157.14L549.233 158.126C550.231 159.931 551.296 161.018 552.864 162.339C552.151 160.891 551.443 159.574 550.464 158.286C553.106 155.582 555.117 153.903 558.614 152.353L559.124 150.749L559.875 150.68L565.935 155.957C566.717 156.699 565.93 155.997 566.893 156.562L567.612 157.171L568.178 157.128L568.198 157.096C564.595 152.914 559.176 149.196 554.792 145.867ZM616.932 255.011L633.188 265.684L634.312 265.211C634.836 265.95 634.796 265.584 634.688 266.25L635.25 266.625C635.8 266.075 635.859 265.597 636.083 264.868C635.587 263.701 635.454 262.489 634.875 261.37L633.199 261.182L632.608 260.438C633.242 257.358 632.943 255.132 632.307 252.099C631.558 251.618 630.961 251.252 630.457 250.488L630.184 250.005L629.062 248.674C628.843 249.496 628.761 249.156 629.032 249.664C629.468 250.478 629.719 251.06 629.812 252C630.428 252.467 630.75 252.692 631.5 252.938L631.793 254.283C631.994 255.286 631.887 256.415 631.875 257.438L631.312 257.816L628.499 257.007C627.893 256.854 627.458 256.338 627 255.941C626.289 255.325 626.226 255.388 625.406 255.058L624.562 254.441L623.25 254.438L622.875 253.691L622.127 253.877L622.065 254.358L622.688 254.816L622.219 255.002L621.75 255.566L621.374 255.375L621.109 254.313C620.576 254.859 620.703 254.55 620.625 255.191L619.5 255.188L619.125 254.441L618.65 254.504C617.915 254.568 618.19 254.572 617.438 254.25L617.253 254.552L616.932 255.011Z"/>
	<path fill="#8E99AE" fill-opacity="0.70980394" transform="scale(0.666667 0.666667)" d="M616.932 255.011L617.253 254.552L617.438 254.25C618.19 254.572 617.915 254.568 618.65 254.504L619.125 254.441L619.5 255.188L620.625 255.191C620.703 254.55 620.576 254.859 621.109 254.313L621.374 255.375L621.75 255.566L622.219 255.002L622.688 254.816L622.065 254.358L622.127 253.877L622.875 253.691L623.25 254.438L624.562 254.441L625.406 255.058C626.226 255.388 626.289 255.325 627 255.941C627.458 256.338 627.893 256.854 628.499 257.007L631.312 257.816L631.875 257.438C631.887 256.415 631.994 255.286 631.793 254.283L631.5 252.938C630.75 252.692 630.428 252.467 629.812 252C629.719 251.06 629.468 250.478 629.032 249.664C628.761 249.156 628.843 249.496 629.062 248.674L630.184 250.005L630.457 250.488C630.961 251.252 631.558 251.618 632.307 252.099C632.943 255.132 633.242 257.358 632.608 260.438L633.199 261.182L634.875 261.37C635.454 262.489 635.587 263.701 636.083 264.868C635.859 265.597 635.8 266.075 635.25 266.625L634.688 266.25C634.796 265.584 634.836 265.95 634.312 265.211L633.188 265.684L616.932 255.011Z"/>
	<path fill="#8E99AE" fill-opacity="0.65882355" transform="scale(0.666667 0.666667)" d="M554.792 145.867C559.176 149.196 564.595 152.914 568.198 157.096L568.178 157.128L567.612 157.171L566.893 156.562C565.93 155.997 566.717 156.699 565.935 155.957L559.875 150.68L559.124 150.749L558.614 152.353C555.117 153.903 553.106 155.582 550.464 158.286C551.443 159.574 552.151 160.891 552.864 162.339C551.296 161.018 550.231 159.931 549.233 158.126L548.669 157.14C547.412 155.126 546.201 153.007 545.336 150.795L546.004 150.624C548.991 149.118 551.897 147.707 554.792 145.867Z"/>
	<path fill="#8E99AC" fill-opacity="0.094117649" transform="scale(0.666667 0.666667)" d="M540.9 134.574L542.622 135.525L543.874 136.848L552.611 143.945L554.792 145.867C551.897 147.707 548.991 149.118 546.004 150.624L545.336 150.795L537.808 138.809C539.189 137.723 539.98 136.054 540.9 134.574ZM543.874 136.848C543.983 139.064 545.553 139.49 546.086 141.375L546.602 142.81L551.062 143.924L552.138 144.214L552.611 143.945L543.874 136.848Z"/>
	<path fill="#8E99AE" fill-opacity="0.027450981" transform="scale(0.666667 0.666667)" d="M543.874 136.848L552.611 143.945L552.138 144.214L551.062 143.924L546.602 142.81L546.086 141.375C545.553 139.49 543.983 139.064 543.874 136.848Z"/>
	<path fill="#EFF2F2" transform="scale(0.666667 0.666667)" d="M247.846 100.317L311.457 76.6462C312.342 76.2851 313.666 75.8884 314.444 75.3629C315.302 74.7835 316.862 69.5512 317.375 68.3619C320.798 60.4313 326.439 53.6469 334.688 50.5474C339.369 48.7883 345.794 48.4996 350.413 50.6742C352.413 51.6159 356.277 54.542 356.696 56.9522C357.034 58.899 356.26 62.1897 355.358 63.9756C354.763 65.1541 354.306 66.4433 353.86 67.6875C353.661 68.2406 353.565 68.5635 353.199 69.0325L350.718 72.359C356.646 70.4883 361.576 68.1384 366.562 64.361C375.562 57.5439 382.787 47.6969 393.664 43.6875C396.196 42.7542 401.621 40.6501 404.137 42.0207C404.94 42.4581 405.391 43.3057 405.626 44.1728C407.367 50.5901 402.745 55.6176 399.918 60.8178C403.232 61.3097 406.71 61.0726 410.062 61.1811C416.957 61.4044 423.435 62.0092 430.182 63.497C433.515 64.2319 436.875 65.0117 439.897 66.6699C441.701 67.66 442.296 68.4331 442.871 70.3125C442.719 71.3094 442.467 72.0435 441.96 72.9256C441.248 74.165 439.826 76.0699 438.393 76.4227C437.705 76.5923 437.554 76.6966 437.055 77.1885L437.316 78.1875C438.09 78.4653 438.836 78.7415 439.527 79.1968C445.923 83.4119 454.855 84.875 462 87.8136L484.866 98.1625C490.535 100.669 495.973 104.102 501.383 107.129C506.853 110.189 512.549 113.022 517.705 116.592C519.581 117.89 521.857 119.447 523.334 121.195L525.071 121.678L530.677 125.685L532.777 127.713C534.785 129.213 536.827 130.862 538.503 132.733C537.6 134.567 536.32 135.976 536.98 137.966L536.841 138.541C542.153 146.197 546.349 154.494 550.286 162.921C561.496 186.922 568.764 212.762 571.98 239.074C558.581 235.97 544.457 233.775 530.706 233.221C511.53 233.368 492.466 232.046 473.352 234.481C468.337 235.12 463.275 235.932 458.372 237.188C454.514 238.176 450.642 239.597 446.696 240.167C432.852 245.026 421.935 251.556 414.662 264.73C412.385 268.854 410.663 273.304 408.436 277.482C396.438 279.521 384.286 278.959 372.182 279.13C361.62 279.279 350.671 280.094 340.199 278.462L332.749 263.99C323.246 248.626 306.353 241.669 289.458 237.698L265.443 234.352C251.702 232.991 238.021 233.023 224.25 233.61L204.692 234.633C187.402 236.701 169.496 238.586 152.745 243.536C145.186 245.77 137.78 248.907 130.755 252.47C123.842 255.976 117.083 260.159 110.995 264.957C109.449 266.176 102.911 272.776 102 272.958C102.786 265.998 105.096 259.364 106.993 252.653C107.152 252.619 107.907 250.566 108.026 250.271L112.301 240.326L118.298 226.563C124.285 214.153 131.406 201.898 139.206 190.549C153.585 169.626 172.599 151.148 192.245 135.221C202.105 127.227 212.433 119.439 223.31 112.872C226.305 111.064 229.573 109.584 232.688 107.986L247.846 100.317ZM532.777 127.713C532.28 128.726 531.827 129.302 531.068 130.13L530.667 130.584L536.841 138.541L536.98 137.966C536.32 135.976 537.6 134.567 538.503 132.733C536.827 130.862 534.785 129.213 532.777 127.713ZM523.334 121.195L530.667 130.584L531.068 130.13C531.827 129.302 532.28 128.726 532.777 127.713L530.677 125.685L525.071 121.678L523.334 121.195Z"/>
	<path fill="#909CB0" fill-opacity="0.98823529" transform="scale(0.666667 0.666667)" d="M523.334 121.195L525.071 121.678L530.677 125.685L532.777 127.713C532.28 128.726 531.827 129.302 531.068 130.13L530.667 130.584L523.334 121.195Z"/>
	<path fill="#8E99AC" fill-opacity="0.87450981" transform="scale(0.666667 0.666667)" d="M532.777 127.713C534.785 129.213 536.827 130.862 538.503 132.733C537.6 134.567 536.32 135.976 536.98 137.966L536.841 138.541L530.667 130.584L531.068 130.13C531.827 129.302 532.28 128.726 532.777 127.713Z"/>
	<path fill="#48546E" transform="scale(0.666667 0.666667)" d="M446.696 240.167C442.788 234.426 440.157 228.278 439.407 221.319C438.448 212.421 439.811 202.79 445.65 195.691C452.161 187.777 461.384 183.279 471.55 182.376C486.265 181.069 500.36 184.374 511.742 194.117C523.592 204.26 529.452 217.891 530.706 233.221C511.53 233.368 492.466 232.046 473.352 234.481C468.337 235.12 463.275 235.932 458.372 237.188C454.514 238.176 450.642 239.597 446.696 240.167Z"/>
	<path fill="#48546E" transform="scale(0.666667 0.666667)" d="M204.692 234.633C205.567 219.185 210.144 205.906 221.914 195.342C232.447 185.888 248.235 181.502 262.218 182.393C272.75 183.064 281.678 185.334 288.859 193.603C295.346 201.075 297.884 210.064 297.178 219.884C296.679 226.834 293.613 232.294 289.458 237.698L265.443 234.352C251.702 232.991 238.021 233.023 224.25 233.61L204.692 234.633Z"/>
	<path fill="#EFF2F2" transform="scale(0.666667 0.666667)" d="M220.585 465.999L220.797 466.131C223.401 467.298 226.268 468.036 228.968 468.955C239.685 472.603 250.476 474.861 261.46 477.449C285.051 483.006 308.835 485.804 333 487.13C364.425 488.853 396.234 488.319 427.5 484.497C458.98 480.649 490.068 473.503 520.343 464.129C535.491 459.438 550.482 454.498 565.122 448.367L561.955 450.412C558.553 452.369 554.626 456.764 552.113 459.809C556.734 463.741 561.769 467.044 566.062 471.406C581.845 487.438 593.585 507.593 601.291 528.644C604.083 536.272 606.614 544.354 607.327 552.489C608.371 564.398 604.316 576.89 596.594 586.017C590.406 593.332 582.785 598.591 574.594 603.406L566.181 608.18C565.83 608.369 563.258 609.575 563.159 609.782C562.966 610.186 563.354 612.816 563.393 613.514C563.582 616.884 563.709 620.272 563.468 623.643C562.876 631.89 561.189 639.985 558.314 647.737C556.429 652.819 553.608 657.539 550.734 662.113C545.215 670.894 538.865 679.118 531.685 686.609C526.743 691.764 521.276 696.332 517.578 702.543C512.098 711.748 514.061 723.463 506.812 731.92C502.525 736.923 494.852 739.533 488.462 740.005C480.604 740.585 474.051 738.396 468.122 733.248C461.649 727.626 457.747 719.241 453.74 711.842C452.385 709.339 450.671 707.217 449.246 704.812C441.947 692.498 436.495 677.361 435.729 662.996L435.715 662.135C435.003 659.631 435.036 656.612 434.7 654L433.779 653.354C429.794 656.278 426.29 659.567 421.799 661.756C417.11 664.041 411.892 664.872 406.821 665.829C398.437 667.412 389.568 668.757 381.039 669.129C374.566 669.412 367.909 669.457 361.447 668.994C359.063 668.823 356.732 668.356 354.375 667.989C348.377 667.054 337.973 666.121 333.562 661.428C333.122 660.96 332.039 659.912 331.82 659.33C331.429 658.289 331.392 656.447 331.25 655.312C330.781 651.579 330.643 645.761 328.62 642.484C327.827 641.199 326.415 640.061 325.304 639.04L325.152 638.603C324.504 636.948 324.718 635.356 324.293 633.681C323.616 631.009 322.089 628.228 320.905 625.735L320.829 625.321C320.026 622.541 317.657 619.489 315.988 617.152C308.68 606.914 300.319 597.535 289.275 591.216C272.538 581.641 253.787 581.768 235.62 586.758L232.975 587.622C220.546 592.128 208.886 600.283 203.205 612.609C199.969 619.63 199.461 627.473 200.636 635.06C201.031 637.609 201.83 640.166 201.807 642.749C203.548 646.646 205.927 649.455 208.45 652.812L216.004 663.076C216.78 664.133 218.873 666.365 219.142 667.496L218.81 668.602L219.74 669.934L219.386 670.367L218.437 669.381C217.648 669.243 217.931 669.395 217.371 668.956C215.869 667.779 215.141 667.543 214.141 665.721L213.902 665.271L213.473 665.133C212.358 664.676 209.693 662.455 209.281 661.465L209.111 661.018C208.699 660.334 208.339 660.355 207.629 660.258L205.655 657.026L204.802 656.833C204.478 655.761 204.212 654.3 203.287 653.581L202.793 653.235L203.156 652.142C201.024 651.857 200.814 648.593 199.447 647.063C198.772 647.763 198.318 648.154 198.076 649.126C193.142 639.451 191.808 629.035 189.516 618.64L181.178 617.777C165.317 615.567 148.844 606.806 139.179 593.901C131.997 584.312 128.598 570.177 130.353 558.349C135.328 524.805 159.22 496.615 184.616 475.7C186.838 473.87 189.108 472.074 191.516 470.495L198.677 465.965C199.195 465.617 200.544 464.932 200.892 464.46C201.379 463.8 201.712 461.786 201.977 460.92L196.375 457.906L196.041 457.694L220.585 465.999ZM271.701 529.109C271.631 529.874 271.388 530.941 271.486 531.681L271.521 532.081C271.813 535.717 271.931 539.927 271.813 543.562C271.766 545.005 271.026 547.082 271.454 548.454C271.759 549.433 272.281 549.542 272.697 550.34L272.876 551.063L274.027 551.34L274.219 552.189L275.189 551.462L276.416 551.642L297.767 538.414L312.366 531.294C321.912 527.031 331.589 523.493 341.527 520.271C342.526 519.426 343.961 519.078 345.154 518.555L354.803 514.629L348.155 513.398L345.195 512.226L331.393 511.601L306.578 508.391C301.019 507.725 295.024 507.658 289.599 506.388C286.431 505.646 281.128 504.338 277.953 504.913C274.134 510.671 274.03 516.37 273.34 523.035C273.115 525.207 273.004 527.471 272.068 529.472L271.701 529.109ZM402.244 511.496C408.498 511.954 414.992 514.165 420.934 516.113C446.168 524.382 468.06 536.988 489.414 552.596C488.61 543.642 487.752 534.602 486.214 525.741L479.997 498.113C476.293 498.253 472.775 499.253 469.25 500.304C453.765 504.921 437.108 507.054 421.125 509.198L407.047 510.93C405.45 511.133 403.819 511.095 402.244 511.496ZM345.195 512.226L348.155 513.398L354.803 514.629L345.154 518.555C343.961 519.078 342.526 519.426 341.527 520.271L368.536 515.09C366.042 511.957 362.746 514.003 359.819 512.428L359.438 512.195L358.44 512.438C356.151 513.204 352.923 513.276 350.573 512.615C348.816 512.12 347.011 512.228 345.195 512.226ZM271.486 531.681L269.692 557.173L276.416 551.642L275.189 551.462L274.219 552.189L274.027 551.34L272.876 551.063L272.697 550.34C272.281 549.542 271.759 549.433 271.454 548.454C271.026 547.082 271.766 545.005 271.813 543.562C271.931 539.927 271.813 535.717 271.521 532.081L271.486 531.681Z"/>
	<path fill="#2C2E43" fill-opacity="0.98823529" transform="scale(0.666667 0.666667)" d="M271.486 531.681L271.521 532.081C271.813 535.717 271.931 539.927 271.813 543.562C271.766 545.005 271.026 547.082 271.454 548.454C271.759 549.433 272.281 549.542 272.697 550.34L272.876 551.063L274.027 551.34L274.219 552.189L275.189 551.462L276.416 551.642L269.692 557.173L271.486 531.681Z"/>
	<path fill="#2C2E43" fill-opacity="0.98823529" transform="scale(0.666667 0.666667)" d="M345.195 512.226C347.011 512.228 348.816 512.12 350.573 512.615C352.923 513.276 356.151 513.204 358.44 512.438L359.438 512.195L359.819 512.428C362.746 514.003 366.042 511.957 368.536 515.09L341.527 520.271C342.526 519.426 343.961 519.078 345.154 518.555L354.803 514.629L348.155 513.398L345.195 512.226Z"/>
	<path fill="#2C2E43" fill-opacity="0.97254902" transform="scale(0.666667 0.666667)" d="M402.244 511.496C403.819 511.095 405.45 511.133 407.047 510.93L421.125 509.198C437.108 507.054 453.765 504.921 469.25 500.304C472.775 499.253 476.293 498.253 479.997 498.113L486.214 525.741C487.752 534.602 488.61 543.642 489.414 552.596C468.06 536.988 446.168 524.382 420.934 516.113C414.992 514.165 408.498 511.954 402.244 511.496Z"/>
	<defs>
		<linearGradient id="gradient_6" gradientUnits="userSpaceOnUse" x1="312.73001" y1="506.26022" x2="297.67108" y2="558.75458">
			<stop offset="0" stop-color="#2A2C40" stop-opacity="0.52549022"/>
			<stop offset="1" stop-color="#2B2D41" stop-opacity="0.89411765"/>
		</linearGradient>
	</defs>
	<path fill="url(#gradient_6)" transform="scale(0.666667 0.666667)" d="M271.701 529.109L272.068 529.472C273.004 527.471 273.115 525.207 273.34 523.035C274.03 516.37 274.134 510.671 277.953 504.913C281.128 504.338 286.431 505.646 289.599 506.388C295.024 507.658 301.019 507.725 306.578 508.391L331.393 511.601L345.195 512.226L348.155 513.398L354.803 514.629L345.154 518.555C343.961 519.078 342.526 519.426 341.527 520.271C331.589 523.493 321.912 527.031 312.366 531.294L297.767 538.414L276.416 551.642L275.189 551.462L274.219 552.189L274.027 551.34L272.876 551.063L272.697 550.34C272.281 549.542 271.759 549.433 271.454 548.454C271.026 547.082 271.766 545.005 271.813 543.562C271.931 539.927 271.813 535.717 271.521 532.081L271.486 531.681C271.388 530.941 271.631 529.874 271.701 529.109ZM275.189 551.462L276.416 551.642L297.767 538.414C295.729 538.445 294.203 538.198 292.557 539.625L291.562 540.473L291.152 540.188L290.062 540.706L288.75 540.191C288.014 540.649 287.538 540.951 287.066 541.688L287.185 542.378L287.25 542.816C286.625 543.37 286.239 543.84 285.375 543.938L285 543.191L284.337 543.087L285.28 541.471L284.812 540.941C283.573 541.116 282.945 541.675 282 542.441C281.435 542.899 281.148 542.91 281.007 543.61C280.887 544.202 280.695 544.43 280.316 544.875L280.245 545.879C279.679 546.363 279.373 546.636 278.627 546.752L279.378 547.117L279.375 547.691L278.627 547.877C278.23 548.672 278.352 548.867 277.5 549.191C276.439 549.595 276.085 550.197 275.47 551.07L275.189 551.462ZM331.393 511.601L331.293 512.173L322.635 512.461C325.404 513.303 329.564 511.752 331.875 512.984L333.189 512.719L332.983 513.029C332.271 514.164 332.256 514.563 332.372 515.878L332.668 515.625L332.702 514.895C333.911 513.885 334.046 513.762 335.711 513.853C336.409 513.891 336.676 514.031 337.288 514.303C339.455 515.268 342.78 514.695 344.954 513.999C346.014 513.659 347.049 513.489 348.155 513.398L345.195 512.226L331.393 511.601Z"/>
	<path fill="#020B28" fill-opacity="0.63137257" transform="scale(0.666667 0.666667)" d="M331.393 511.601L345.195 512.226L348.155 513.398C347.049 513.489 346.014 513.659 344.954 513.999C342.78 514.695 339.455 515.268 337.288 514.303C336.676 514.031 336.409 513.891 335.711 513.853C334.046 513.762 333.911 513.885 332.702 514.895L332.668 515.625L332.372 515.878C332.256 514.563 332.271 514.164 332.983 513.029L333.189 512.719L331.875 512.984C329.564 511.752 325.404 513.303 322.635 512.461L331.293 512.173L331.393 511.601Z"/>
	<defs>
		<linearGradient id="gradient_7" gradientUnits="userSpaceOnUse" x1="281.86313" y1="544.75635" x2="282.89551" y2="546.03864">
			<stop offset="0" stop-color="#2B2D42" stop-opacity="0.93333334"/>
			<stop offset="1" stop-color="#2B2D42" stop-opacity="0.97254902"/>
		</linearGradient>
	</defs>
	<path fill="url(#gradient_7)" transform="scale(0.666667 0.666667)" d="M275.189 551.462L275.47 551.07C276.085 550.197 276.439 549.595 277.5 549.191C278.352 548.867 278.23 548.672 278.627 547.877L279.375 547.691L279.378 547.117L278.627 546.752C279.373 546.636 279.679 546.363 280.245 545.879L280.316 544.875C280.695 544.43 280.887 544.202 281.007 543.61C281.148 542.91 281.435 542.899 282 542.441C282.945 541.675 283.573 541.116 284.812 540.941L285.28 541.471L284.337 543.087L285 543.191L285.375 543.938C286.239 543.84 286.625 543.37 287.25 542.816L287.185 542.378L287.066 541.688C287.538 540.951 288.014 540.649 288.75 540.191L290.062 540.706L291.152 540.188L291.562 540.473L292.557 539.625C294.203 538.198 295.729 538.445 297.767 538.414L276.416 551.642L275.189 551.462Z"/>
	<defs>
		<linearGradient id="gradient_8" gradientUnits="userSpaceOnUse" x1="444.1507" y1="398.07727" x2="298.03488" y2="707.29449">
			<stop offset="0" stop-color="#000019"/>
			<stop offset="1" stop-color="#152847"/>
		</linearGradient>
	</defs>
	<path fill="url(#gradient_8)" transform="scale(0.666667 0.666667)" d="M220.585 465.999L220.797 466.131C223.401 467.298 226.268 468.036 228.968 468.955C239.685 472.603 250.476 474.861 261.46 477.449C285.051 483.006 308.835 485.804 333 487.13C364.425 488.853 396.234 488.319 427.5 484.497C458.98 480.649 490.068 473.503 520.343 464.129C535.491 459.438 550.482 454.498 565.122 448.367L561.955 450.412C558.553 452.369 554.626 456.764 552.113 459.809C556.734 463.741 561.769 467.044 566.062 471.406C581.845 487.438 593.585 507.593 601.291 528.644C604.083 536.272 606.614 544.354 607.327 552.489C608.371 564.398 604.316 576.89 596.594 586.017C590.406 593.332 582.785 598.591 574.594 603.406L566.181 608.18C565.83 608.369 563.258 609.575 563.159 609.782C562.966 610.186 563.354 612.816 563.393 613.514C563.582 616.884 563.709 620.272 563.468 623.643C562.876 631.89 561.189 639.985 558.314 647.737C556.429 652.819 553.608 657.539 550.734 662.113C545.215 670.894 538.865 679.118 531.685 686.609C526.743 691.764 521.276 696.332 517.578 702.543C512.098 711.748 514.061 723.463 506.812 731.92C502.525 736.923 494.852 739.533 488.462 740.005C480.604 740.585 474.051 738.396 468.122 733.248C461.649 727.626 457.747 719.241 453.74 711.842C452.385 709.339 450.671 707.217 449.246 704.812C441.947 692.498 436.495 677.361 435.729 662.996L435.715 662.135C435.003 659.631 435.036 656.612 434.7 654L433.779 653.354L434.727 652.616C434.835 651.195 435.49 650.071 435.792 648.697L436.81 642.923C440.076 624.892 450.794 605.156 466.117 594.587C481.84 583.743 500.692 583.414 518.821 586.798L522.1 587.528C534.739 591.766 545.426 598.161 551.523 610.502C552.731 612.949 553.648 615.576 554.38 618.202C554.996 620.417 555.278 624.641 556.686 626.3L558.375 617.465C559.364 609.911 558.9 601.505 558.299 593.938C556.283 568.537 549.568 544.177 539.348 520.89C535.921 513.083 532.448 505.247 528.056 497.926C525.236 493.226 521.965 488.871 518.623 484.537C512.218 487.602 505.535 490.09 498.869 492.519C492.722 494.759 486.451 496.959 479.997 498.113C476.293 498.253 472.775 499.253 469.25 500.304C453.765 504.921 437.108 507.054 421.125 509.198L407.047 510.93C405.45 511.133 403.819 511.095 402.244 511.496L368.536 515.09C366.042 511.957 362.746 514.003 359.819 512.428L359.438 512.195L358.44 512.438C356.151 513.204 352.923 513.276 350.573 512.615C348.816 512.12 347.011 512.228 345.195 512.226L331.393 511.601L306.578 508.391C301.019 507.725 295.024 507.658 289.599 506.388C286.431 505.646 281.128 504.338 277.953 504.913C274.134 510.671 274.03 516.37 273.34 523.035C273.115 525.207 273.004 527.471 272.068 529.472L271.701 529.109L275.306 504.482C262.605 502.265 249.346 498.77 237.2 494.432L221.991 488.333L216.422 500.275L205.054 527.958C200.832 539.794 197.926 551.975 195.583 564.303C191.417 586.224 188.513 611.249 197.163 632.429L201.807 642.749C203.548 646.646 205.927 649.455 208.45 652.812L216.004 663.076C216.78 664.133 218.873 666.365 219.142 667.496L218.81 668.602L219.74 669.934L219.386 670.367L218.437 669.381C217.648 669.243 217.931 669.395 217.371 668.956C215.869 667.779 215.141 667.543 214.141 665.721L213.902 665.271L213.473 665.133C212.358 664.676 209.693 662.455 209.281 661.465L209.111 661.018C208.699 660.334 208.339 660.355 207.629 660.258L205.655 657.026L204.802 656.833C204.478 655.761 204.212 654.3 203.287 653.581L202.793 653.235L203.156 652.142C201.024 651.857 200.814 648.593 199.447 647.063C198.772 647.763 198.318 648.154 198.076 649.126C193.142 639.451 191.808 629.035 189.516 618.64L181.178 617.777C165.317 615.567 148.844 606.806 139.179 593.901C131.997 584.312 128.598 570.177 130.353 558.349C135.328 524.805 159.22 496.615 184.616 475.7C186.838 473.87 189.108 472.074 191.516 470.495L198.677 465.965C199.195 465.617 200.544 464.932 200.892 464.46C201.379 463.8 201.712 461.786 201.977 460.92L196.375 457.906L196.041 457.694L220.585 465.999Z"/>
	<path fill="#2C2E43" transform="scale(0.666667 0.666667)" d="M202.814 468.006C203.776 469.531 204.223 471.8 205.045 473.489C208.061 479.689 213.331 483.429 219.007 486.949L206.018 513.966C199.775 528.193 194.866 544.316 192.579 559.687L192.261 559.688C191.856 558.933 191.437 558.423 190.838 557.812C189.919 558.504 189.693 560.365 189.384 561.508C188.649 564.231 187.857 566.852 186.706 569.438L186.188 569.605L185.625 568.527L184.962 568.582C183.108 571.498 182.855 575.304 181.068 578.389C180.361 579.61 178.681 581.798 177.188 581.995C176.59 582.074 174.755 582.139 174.188 581.958C173.898 581.865 172.945 580.777 172.684 580.533C171.316 579.253 169.935 578.122 168.39 577.062L167.863 576.704L167.1 576.234L166.688 576.008C165.659 575.434 164.676 574.96 163.513 574.744C162.205 574.501 157.094 574.267 156.209 573.484C155.514 572.87 154.983 569.631 154.698 568.615C153.384 563.926 151.535 557.311 147.737 554.041C146.474 552.954 146.7 550.153 145.907 548.685C145.349 547.653 143.746 547.372 142.979 546.375C143.339 543.365 144.49 540.367 145.541 537.541C148.238 530.295 151.851 523.837 156.075 517.378C157.714 514.872 159.21 512.241 161.066 509.885C165.705 503.994 171.295 498.595 176.366 493.056C179.38 489.765 182.03 486.121 185.244 483.025C190.749 477.72 196.973 472.954 202.814 468.006Z"/>
	<path fill="#2C2E43" transform="scale(0.666667 0.666667)" d="M433.779 653.354L434.727 652.616C434.835 651.195 435.49 650.071 435.792 648.697L436.81 642.923C440.076 624.892 450.794 605.156 466.117 594.587C481.84 583.743 500.692 583.414 518.821 586.798L522.1 587.528C534.739 591.766 545.426 598.161 551.523 610.502C552.731 612.949 553.648 615.576 554.38 618.202C554.996 620.417 555.278 624.641 556.686 626.3C554.485 633.764 552.304 640.909 548.403 647.709C543.179 656.813 536.593 664.866 530.079 673.051L518.715 687.958C512.74 695.875 507.518 704.584 501.264 712.231C498.997 715.002 496.232 718.108 493.063 719.856C488.154 722.562 482.72 722.826 477.393 721.2C464.49 717.263 450.349 695.668 444.527 684.079C442.451 679.947 440.234 675.487 438.865 671.062C438.163 668.793 438.089 665.829 436.969 663.763L436.746 664.994L436.501 664.875C436.482 663.495 436.554 663.305 435.715 662.135C435.003 659.631 435.036 656.612 434.7 654L433.779 653.354Z"/>
	<path fill="#EFF2F2" transform="scale(0.666667 0.666667)" d="M514.637 632.338L515.57 632.271L517.714 633.415C520.306 634.955 521.952 637.032 522.585 640.031C523.4 643.891 522.627 648.462 520.266 651.634C518.522 653.978 516.013 656.22 512.998 656.513C510.791 656.728 508.004 656.48 506.256 654.967C504.465 653.415 503.708 650.702 503.521 648.434C503.158 644.025 504.181 639.117 507.235 635.784C509.172 633.672 511.359 632.462 514.22 632.349L514.637 632.338Z"/>
	<path fill="#EFF2F2" transform="scale(0.666667 0.666667)" d="M486.2 627.004C487.942 626.897 489.627 627.102 491.308 627.562C493.365 628.126 495.337 630.033 496.269 631.934C497.987 635.436 498.039 640.048 496.773 643.706C495.44 647.558 492.851 649.407 489.312 651.05C487.848 651.07 486.461 650.946 485.062 650.475C482.25 649.527 480.069 647.017 478.944 644.331C477.419 640.689 477.304 637.178 478.903 633.538C480.485 629.937 482.692 628.423 486.2 627.004Z"/>
	<path fill="#020B28" transform="scale(0.666667 0.666667)" d="M518.821 586.798L522.1 587.528L521.992 587.864C520.722 591.744 518.79 595.386 517.437 599.251C516.08 603.129 515.408 607.104 515.008 611.18C514.515 616.204 515.491 621.167 515.867 626.168C516.009 628.057 516.448 630.532 515.57 632.271L514.637 632.338C513.436 629.773 513.015 626.712 512.034 624.016C510.981 621.119 508.311 616.964 505.333 615.705C504.461 615.336 503.181 615.096 502.308 615.561C498.471 617.603 495.795 622.426 494.626 626.411L494.494 626.871C493.762 627.378 493.902 627.44 492.938 627.393C492.192 625.953 492.268 624.384 492.599 622.818C493.417 618.94 496.864 614.875 499.087 611.556C503.302 605.264 507.521 598.847 512.425 593.062C514.438 590.689 516.165 588.486 518.821 586.798Z"/>
	<path fill="#020B28" transform="scale(0.666667 0.666667)" d="M446.696 240.167C450.642 239.597 454.514 238.176 458.372 237.188C463.275 235.932 468.337 235.12 473.352 234.481C492.466 232.046 511.53 233.368 530.706 233.221C544.457 233.775 558.581 235.97 571.98 239.074C579.662 241.06 587.594 242.861 595.12 245.365C602.709 247.889 609.899 251.219 616.932 255.011L633.188 265.684L634.312 265.211C634.836 265.95 634.796 265.584 634.688 266.25L635.25 266.625C635.8 266.075 635.859 265.597 636.083 264.868C636.236 266.515 636.089 266.645 637.34 267.846L636.741 267.957C638.972 270.884 641.668 273.336 643.102 276.828C644.97 281.38 644.163 288.193 644.273 293.062C644.4 298.676 644.998 304.463 644.208 310.05C643.64 314.07 638.998 316.695 638.669 320.224C639.355 328.057 641.713 336.127 644.017 343.639C645.493 348.451 647.018 354.876 651.064 358.238C653.031 359.873 655.335 360.744 657.767 361.409C660.283 362.097 667.986 362.868 669.325 365.062C669.563 365.453 669.593 365.938 669.727 366.375C669.344 368.478 668.821 369.797 667.591 371.548C664.194 376.384 659.487 380.552 655.311 384.716C647.096 392.906 638.875 401.137 629.846 408.445L611.603 421.878L565.122 448.367C550.482 454.498 535.491 459.438 520.343 464.129C490.068 473.503 458.98 480.649 427.5 484.497C396.234 488.319 364.425 488.853 333 487.13C308.835 485.804 285.051 483.006 261.46 477.449C250.476 474.861 239.685 472.603 228.968 468.955C226.268 468.036 223.401 467.298 220.797 466.131L220.585 465.999L196.041 457.694L187.5 454.135L177.393 449.314C161.888 442.116 147.169 434.21 132.938 424.683L117.099 412.994C110.39 407.548 70.5226 373.528 69.3712 367.688C69.8744 366.493 70.6757 365.941 71.8777 365.521C73.6667 364.896 75.7541 364.798 77.6274 364.537C82.9334 363.797 88.2111 362.254 92.6939 359.246C103.503 351.993 106.858 336.333 109.476 324.424C109.488 322.991 109.653 320.762 109.309 319.406C109.153 318.788 108.21 317.858 107.813 317.399C106.52 315.907 105.113 314.368 104.062 312.691C103.384 311.608 102.829 310.372 102.638 309.099C101.949 304.492 102.196 299.505 101.912 294.843C101.611 289.903 100.746 285.008 100.92 280.045C101.005 277.646 101.511 275.3 102 272.958C102.911 272.776 109.449 266.176 110.995 264.957C117.083 260.159 123.842 255.976 130.755 252.47C137.78 248.907 145.186 245.77 152.745 243.536C169.496 238.586 187.402 236.701 204.692 234.633L224.25 233.61C238.021 233.023 251.702 232.991 265.443 234.352L289.458 237.698C306.353 241.669 323.246 248.626 332.749 263.99L340.199 278.462C350.671 280.094 361.62 279.279 372.182 279.13C384.286 278.959 396.438 279.521 408.436 277.482C410.663 273.304 412.385 268.854 414.662 264.73C421.935 251.556 432.852 245.026 446.696 240.167ZM494.223 256.335C490.917 256.503 487.577 256.315 484.282 256.581C468.237 257.88 449.926 263.049 438.813 275.383C430.662 284.43 428.694 297.658 429.413 309.375C429.735 314.625 431.178 319.959 432.751 324.954C437.047 338.6 444.014 352.951 453.651 363.622C454.266 362.07 453.519 360.078 453.129 358.512C452.179 354.695 451.14 351.156 449.523 347.564L444.959 338.595C443.337 335.111 441.837 331.55 440.667 327.887C437.521 318.033 436.437 306.598 439.311 296.544C441.131 290.176 445.186 283.601 451.129 280.381C458.28 276.508 466.61 276.759 474.211 279.035C482.269 281.447 494.233 288.123 498.328 295.75L508.884 310.41C511.03 312.874 512.684 315.835 514.47 318.571L524.028 333.229L535.263 350.343L548.218 367.294C550.302 369.962 552.226 373.533 554.502 375.885L562.722 333.128C562.826 332.506 562.917 331.909 563.12 331.311C564.643 326.826 564.617 321.486 564.941 316.788L566.231 293.438C566.689 284.122 567.721 274.681 567.507 265.351C562.786 263.635 557.712 262.622 552.797 261.615C543.657 259.743 534.442 258.332 525.151 257.446L514.688 256.84C507.999 256.276 500.919 255.727 494.223 256.335ZM567.507 265.351C567.721 274.681 566.689 284.122 566.231 293.438L564.941 316.788C564.617 321.486 564.643 326.826 563.12 331.311C562.917 331.909 562.826 332.506 562.722 333.128L554.502 375.885L554.431 377.9C562.573 376.466 570.861 375.409 578.256 371.439C586.894 366.802 592.098 359.209 596.729 350.817C601.686 341.836 605.475 332.336 608.433 322.521C611.613 311.965 615.719 297.615 610.093 287.316C602.364 273.171 581.663 269.575 567.507 265.351Z"/>
	<defs>
		<linearGradient id="gradient_9" gradientUnits="userSpaceOnUse" x1="612.43829" y1="294.61661" x2="533.9024" y2="341.63577">
			<stop offset="0" stop-color="#46526C" stop-opacity="0.70980394"/>
			<stop offset="1" stop-color="#47526D" stop-opacity="0.92156863"/>
		</linearGradient>
	</defs>
	<path fill="url(#gradient_9)" transform="scale(0.666667 0.666667)" d="M567.507 265.351C581.663 269.575 602.364 273.171 610.093 287.316C615.719 297.615 611.613 311.965 608.433 322.521C605.475 332.336 601.686 341.836 596.729 350.817C592.098 359.209 586.894 366.802 578.256 371.439C570.861 375.409 562.573 376.466 554.431 377.9L554.502 375.885L562.722 333.128C562.826 332.506 562.917 331.909 563.12 331.311C564.643 326.826 564.617 321.486 564.941 316.788L566.231 293.438C566.689 284.122 567.721 274.681 567.507 265.351Z"/>
	<path fill="#EFF2F2" transform="scale(0.666667 0.666667)" d="M494.223 256.335C500.919 255.727 507.999 256.276 514.688 256.84L525.151 257.446C534.442 258.332 543.657 259.743 552.797 261.615C557.712 262.622 562.786 263.635 567.507 265.351C567.721 274.681 566.689 284.122 566.231 293.438L564.941 316.788C564.617 321.486 564.643 326.826 563.12 331.311C562.917 331.909 562.826 332.506 562.722 333.128L554.502 375.885C552.226 373.533 550.302 369.962 548.218 367.294L535.263 350.343L524.028 333.229L514.47 318.571C512.684 315.835 511.03 312.874 508.884 310.41L498.328 295.75C494.233 288.123 482.269 281.447 474.211 279.035C466.61 276.759 458.28 276.508 451.129 280.381C445.186 283.601 441.131 290.176 439.311 296.544C436.437 306.598 437.521 318.033 440.667 327.887C441.837 331.55 443.337 335.111 444.959 338.595L449.523 347.564C451.14 351.156 452.179 354.695 453.129 358.512C453.519 360.078 454.266 362.07 453.651 363.622C444.014 352.951 437.047 338.6 432.751 324.954C431.178 319.959 429.735 314.625 429.413 309.375C428.694 297.658 430.662 284.43 438.813 275.383C449.926 263.049 468.237 257.88 484.282 256.581C487.577 256.315 490.917 256.503 494.223 256.335ZM494.223 256.335L494.498 256.622C496.732 258.829 500.499 258.971 503.41 259.871C505.863 260.629 508.238 261.585 510.596 262.596C519.148 266.263 527.447 270.637 534.718 276.506C546.973 286.398 555.405 300.04 559.516 315.188C561.119 321.096 561.51 327.173 562.722 333.128C562.826 332.506 562.917 331.909 563.12 331.311C564.643 326.826 564.617 321.486 564.941 316.788L566.231 293.438C566.689 284.122 567.721 274.681 567.507 265.351C562.786 263.635 557.712 262.622 552.797 261.615C543.657 259.743 534.442 258.332 525.151 257.446L514.688 256.84C507.999 256.276 500.919 255.727 494.223 256.335Z"/>
	<defs>
		<linearGradient id="gradient_10" gradientUnits="userSpaceOnUse" x1="570.95056" y1="278.28632" x2="511.49802" y2="299.65207">
			<stop offset="0" stop-color="#8B97AB" stop-opacity="0.76078433"/>
			<stop offset="1" stop-color="#909AB0"/>
		</linearGradient>
	</defs>
	<path fill="url(#gradient_10)" transform="scale(0.666667 0.666667)" d="M494.223 256.335C500.919 255.727 507.999 256.276 514.688 256.84L525.151 257.446C534.442 258.332 543.657 259.743 552.797 261.615C557.712 262.622 562.786 263.635 567.507 265.351C567.721 274.681 566.689 284.122 566.231 293.438L564.941 316.788C564.617 321.486 564.643 326.826 563.12 331.311C562.917 331.909 562.826 332.506 562.722 333.128C561.51 327.173 561.119 321.096 559.516 315.188C555.405 300.04 546.973 286.398 534.718 276.506C527.447 270.637 519.148 266.263 510.596 262.596C508.238 261.585 505.863 260.629 503.41 259.871C500.499 258.971 496.732 258.829 494.498 256.622L494.223 256.335Z"/>
	<path fill="#8E99AE" transform="scale(0.666667 0.666667)" d="M453.651 363.622C454.266 362.07 453.519 360.078 453.129 358.512C452.179 354.695 451.14 351.156 449.523 347.564L444.959 338.595C443.337 335.111 441.837 331.55 440.667 327.887C437.521 318.033 436.437 306.598 439.311 296.544C441.131 290.176 445.186 283.601 451.129 280.381C458.28 276.508 466.61 276.759 474.211 279.035C482.269 281.447 494.233 288.123 498.328 295.75L508.884 310.41C511.03 312.874 512.684 315.835 514.47 318.571L524.028 333.229L535.263 350.343L548.218 367.294C550.302 369.962 552.226 373.533 554.502 375.885L554.431 377.9C537.268 379.865 520.225 381.702 502.916 381.465C495.368 381.362 487.382 381.049 479.961 379.594C469.302 377.505 459.834 372.819 453.651 363.622Z"/>
	<defs>
		<linearGradient id="gradient_11" gradientUnits="userSpaceOnUse" x1="449.94891" y1="306.28378" x2="500.66208" y2="342.04291">
			<stop offset="0" stop-color="#011437"/>
			<stop offset="1" stop-color="#303958"/>
		</linearGradient>
	</defs>
	<path fill="url(#gradient_11)" transform="scale(0.666667 0.666667)" d="M444.754 312.555L446.194 307.106C448.945 299.67 454.404 293.31 461.683 290.029C471.236 285.723 481.463 287.65 490.688 291.83C493.18 292.959 495.345 294.636 497.896 295.591L498.328 295.75L508.884 310.41L506.996 311.989C506.452 314.082 507.963 317.132 508.311 319.312C508.79 322.313 508.746 326.401 507.983 329.339L507.799 330C505.702 337.876 500.8 344.776 493.991 349.312C487.454 353.669 478.73 356.112 470.918 354.407C462.285 352.523 454.677 346.966 449.998 339.507C444.675 331.022 442.48 322.383 444.754 312.555Z"/>
	<path fill="#EFF2F2" transform="scale(0.666667 0.666667)" d="M475.157 300.216L476.96 300.314C478.153 300.488 479.439 300.7 480.562 301.139C482.784 302.006 484.99 304.213 485.812 306.457C486.72 308.934 486.61 311.598 485.481 313.978C484.374 316.312 480.885 319.331 478.388 320.064C476.246 320.693 472.998 320.421 471.07 319.311C469.102 318.178 467.176 315.967 466.586 313.76C465.736 310.581 466.364 307.039 468.185 304.303C469.852 301.799 472.335 300.814 475.157 300.216Z"/>
	<path fill="#2C2E43" transform="scale(0.666667 0.666667)" d="M444.754 312.555L446.194 307.106C448.945 299.67 454.404 293.31 461.683 290.029C471.236 285.723 481.463 287.65 490.688 291.83C493.18 292.959 495.345 294.636 497.896 295.591L498.328 295.75L508.884 310.41L506.996 311.989C505.757 311.744 505.266 310.947 504.507 309.959C503.842 309.094 503.191 308.358 502.316 307.688C500.544 306.328 499.057 304.755 497.176 303.484C494.379 301.592 491.472 300.664 488.25 299.776C484.399 298.715 481.053 298.858 477.124 299.429L476.96 300.314L475.157 300.216L475.408 299.73C471.705 297.864 465.855 299.728 462.159 300.944C458.329 302.205 454.469 303.961 451.315 306.516C449.227 308.208 447.131 311.698 444.754 312.555Z"/>
	<path fill="#8E99AE" transform="scale(0.666667 0.666667)" d="M230.719 256.852C235.026 255.893 239.928 256.082 244.331 256.046C263.465 255.89 284.553 258.075 301.076 268.508C310.547 274.489 316.592 284.353 318.991 295.149C319.837 298.957 319.905 302.68 319.88 306.563C319.761 325.24 311.311 343.379 301.324 358.802L300.614 359.834C298.081 363.462 295.321 366.541 291.889 369.338C275.35 382.811 249.971 382.65 229.657 381.992L192.617 379.305C179.115 377.859 165.908 375.369 157.039 364.178C146.167 350.461 140.689 331.569 136.15 314.896C134.498 308.829 132.07 301.249 132.816 294.965C133.643 288.001 136.092 282.45 141.745 278.147C148.135 273.282 156.198 270.249 163.769 267.792C181.079 262.175 199.929 258.688 218.06 257.277C222.201 256.955 226.593 256.285 230.719 256.852Z"/>
	<defs>
		<linearGradient id="gradient_12" gradientUnits="userSpaceOnUse" x1="255.23013" y1="346.98499" x2="289.09473" y2="292.10632">
			<stop offset="0" stop-color="#3F4A6B"/>
			<stop offset="1" stop-color="#606B87"/>
		</linearGradient>
	</defs>
	<path fill="url(#gradient_12)" transform="scale(0.666667 0.666667)" d="M288.716 348.952C285.939 351.314 283.168 352.79 279.562 353.474C271.234 355.056 262.186 352.502 255.254 347.818C249.25 343.762 243.653 337.291 242.242 330.003L242.136 329.438C240.243 320.202 243.767 313.04 248.295 305.25C252.643 297.77 258.768 290.242 267.547 288.009L268.094 287.875L269.277 287.579C277.489 285.839 285.404 289.056 292.199 293.368C290.565 294.082 289.601 293.575 287.911 293.324C284.723 292.851 282.118 293.5 279.638 295.549C278.557 296.442 277.388 297.522 276.81 298.824L275.093 299.835C272.424 301.292 270.846 303.185 269.983 306.096C269.075 309.156 269.341 312.184 270.977 314.926C272.492 317.466 273.509 318.286 276.468 318.965C277.569 319.217 278.761 319.182 279.886 319.2C278.991 319.391 278.171 319.537 277.258 319.591C275.073 319.718 273.513 321.651 272.179 323.207C268.581 327.406 264.606 335.542 265.178 341.246C265.307 342.539 265.702 343.801 266.062 345.042L266.215 345.582C266.617 346.91 267.379 347.73 268.607 348.371C274.827 351.617 282.197 349.239 288.716 348.952Z"/>
	<path fill="#2C2E43" transform="scale(0.666667 0.666667)" d="M276.81 298.824C277.388 297.522 278.557 296.442 279.638 295.549C282.118 293.5 284.723 292.851 287.911 293.324C289.601 293.575 290.565 294.082 292.199 293.368C300.15 298.974 305.24 304.75 306.984 314.654C307.762 319.074 307.471 323.128 306.121 327.4L305.959 327.928C303.404 335.987 296.303 344.872 288.844 348.913L288.716 348.952C282.197 349.239 274.827 351.617 268.607 348.371C267.379 347.73 266.617 346.91 266.215 345.582L266.062 345.042C265.702 343.801 265.307 342.539 265.178 341.246C264.606 335.542 268.581 327.406 272.179 323.207C273.513 321.651 275.073 319.718 277.258 319.591C278.171 319.537 278.991 319.391 279.886 319.2C278.761 319.182 277.569 319.217 276.468 318.965C273.509 318.286 272.492 317.466 270.977 314.926C269.341 312.184 269.075 309.156 269.983 306.096C270.846 303.185 272.424 301.292 275.093 299.835L276.81 298.824Z"/>
	<path fill="#EFF2F2" transform="scale(0.666667 0.666667)" d="M276.81 298.824C280.278 299.166 283.912 299.642 286.345 302.437C288.376 304.772 288.865 307.88 288.475 310.876C288.169 313.221 286.439 315.655 284.532 316.976C283.164 317.924 281.532 318.547 279.967 319.089L279.886 319.2C278.761 319.182 277.569 319.217 276.468 318.965C273.509 318.286 272.492 317.466 270.977 314.926C269.341 312.184 269.075 309.156 269.983 306.096C270.846 303.185 272.424 301.292 275.093 299.835L276.81 298.824Z"/>
	<path fill="#EFF2F2" transform="scale(0.666667 0.666667)" d="M230.719 256.852C235.026 255.893 239.928 256.082 244.331 256.046C263.465 255.89 284.553 258.075 301.076 268.508C310.547 274.489 316.592 284.353 318.991 295.149C319.837 298.957 319.905 302.68 319.88 306.563C319.761 325.24 311.311 343.379 301.324 358.802L300.614 359.834C299.888 358.988 299.318 358.134 298.815 357.136C298.256 356.028 296.334 352.408 296.622 351.292C296.755 350.778 297.707 349.641 298.029 349.153L302.687 342.104C304.886 338.559 306.916 334.742 308.21 330.763C312.102 318.795 312.303 303.921 306.584 292.468C303.551 286.396 298.7 280.481 292.019 278.335L291.375 278.138L289.475 277.634C284.402 276.737 278.34 277.982 273.402 279.12C266.574 280.693 260.386 282.785 254.507 286.688C241.276 295.471 232.083 309.832 223.534 322.875C210.907 342.138 198.472 362.613 179.647 376.427C178.143 374.537 176.897 372.705 176.165 370.374C174.061 363.672 172.989 356.099 172.388 349.125C170.83 331.055 172.852 312.447 181.346 296.162C188.463 282.519 199.742 270.854 213.374 263.694C218.79 260.849 224.9 258.714 230.719 256.852Z"/>
	<path fill="#EFF2F2" transform="scale(0.666667 0.666667)" d="M109.476 324.424L110.835 320.04C115.296 327.133 118.051 335.865 121.431 343.551C132.128 367.87 147.488 395.472 175.5 401.974C185.66 404.332 196.7 403.767 207.084 403.779L238.56 403.791L258.066 403.771C262.641 403.763 267.302 403.969 271.816 403.115C281.793 401.228 291.537 396.426 300.058 391.023C308.368 385.753 316.963 379.634 322.903 371.69C327.471 365.581 330.874 358.656 333.788 351.638L340.717 333.613C343.794 325.34 346.726 314.525 354.639 309.545C359.775 306.312 365.44 306.176 371.328 305.885C376.525 305.629 382.465 305.159 387.562 306.215L388.315 306.365C394.182 307.559 398.623 311.041 401.8 315.996C405.221 321.331 407.481 327.645 409.83 333.522C415.601 347.963 420.7 363.584 431.173 375.402C435.558 380.35 440.826 384.505 446.104 388.442C454.014 394.343 462.521 399.56 472.246 401.732C479.497 403.351 487.465 402.754 494.874 402.756L529.5 402.476C543.941 402.238 559.014 403.18 573.332 401.161C579.557 400.283 584.824 398.481 590.289 395.39C590.336 395.23 591.162 394.623 591.306 394.501L596.388 390.062C600.561 386.06 604.199 381.171 607.476 376.418C611.346 370.804 614.952 364.904 618.01 358.804L624.023 346.022C626.825 339.429 629.266 332.638 632.847 326.408C634.259 323.951 635.789 321.374 638.062 319.627L638.669 320.224C639.355 328.057 641.713 336.127 644.017 343.639C645.493 348.451 647.018 354.876 651.064 358.238C653.031 359.873 655.335 360.744 657.767 361.409C660.283 362.097 667.986 362.868 669.325 365.062C669.563 365.453 669.593 365.938 669.727 366.375C669.344 368.478 668.821 369.797 667.591 371.548C664.194 376.384 659.487 380.552 655.311 384.716C647.096 392.906 638.875 401.137 629.846 408.445L611.603 421.878L565.122 448.367C550.482 454.498 535.491 459.438 520.343 464.129C490.068 473.503 458.98 480.649 427.5 484.497C396.234 488.319 364.425 488.853 333 487.13C308.835 485.804 285.051 483.006 261.46 477.449C250.476 474.861 239.685 472.603 228.968 468.955C226.268 468.036 223.401 467.298 220.797 466.131L220.585 465.999L196.041 457.694L187.5 454.135L177.393 449.314C161.888 442.116 147.169 434.21 132.938 424.683L117.099 412.994C110.39 407.548 70.5226 373.528 69.3712 367.688C69.8744 366.493 70.6757 365.941 71.8777 365.521C73.6667 364.896 75.7541 364.798 77.6274 364.537C82.9334 363.797 88.2111 362.254 92.6939 359.246C103.503 351.993 106.858 336.333 109.476 324.424Z"/>
	<path fill="#E2C0D7" transform="scale(0.666667 0.666667)" d="M356.859 405.045C363.973 404.797 368.416 402.267 373.184 397.131C374.965 395.213 376.385 393.085 377.787 390.882C380.796 396.519 384.6 402.38 391.066 404.385C392.995 404.983 394.962 405.204 396.968 405.33C394.891 408.865 393.067 413.977 389.771 416.466L389.379 416.753C388.027 417.772 386.708 418.534 385.145 419.201C380.204 421.311 374.275 421.473 369.314 419.357C363.35 416.813 359.265 410.91 356.859 405.045Z"/>
	<path fill="#020B28" transform="scale(0.666667 0.666667)" d="M356.859 405.045C352.06 403.777 347.768 401.63 344.222 398.095C342.394 396.272 341.407 394.122 340.433 391.76C345.611 396.011 353.426 402.872 360.657 402C364.549 401.531 368.877 397.271 371.021 394.194C373.233 391.019 374.845 387.216 376.07 383.562C368.364 380.908 359.864 374.634 356.255 367.125C355.424 365.395 354.579 362.653 355.206 360.75C355.792 358.972 357.73 357.687 359.359 356.976C362.192 355.741 365.409 355.495 368.445 355.147C374.626 354.439 380.791 353.964 386.99 354.728C384.449 355.72 382.128 356.898 379.857 358.42C381.96 361.323 383.799 363.586 387.553 364.159C390.458 364.602 394.869 363.657 397.198 361.915L399 360.412C399.969 361.173 400.289 361.739 400.486 363C400.995 366.246 397.891 371.128 395.812 373.477C392.962 376.698 389.677 379.317 385.875 381.322C384.477 382.059 382.032 382.85 380.929 383.941C380.656 384.211 380.63 384.823 380.65 385.176C380.935 390.31 385.162 396.169 389.071 399.314C391.704 401.432 394.691 402.449 398.062 401.981C401.314 401.529 404.301 399.132 406.24 396.581C407.75 394.593 408.62 391.564 410.438 389.919C411.226 390.177 411.528 390.263 411.856 391.125C412.482 392.776 411.006 395.397 410.172 396.755C407.118 401.733 402.355 403.781 396.968 405.33C394.962 405.204 392.995 404.983 391.066 404.385C384.6 402.38 380.796 396.519 377.787 390.882C376.385 393.085 374.965 395.213 373.184 397.131C368.416 402.267 363.973 404.797 356.859 405.045Z"/>
	<path fill="#EFF2F2" transform="scale(0.666667 0.666667)" d="M375.885 359.062C377.085 358.997 377.507 358.992 378.562 359.677C379.222 360.628 379.311 361.138 379.426 362.25C378.761 363.337 378.677 363.241 377.438 363.617C376.59 363.573 375.526 363.303 374.816 362.812C373.813 362.12 373.673 361.515 373.525 360.375C374.339 359.356 374.662 359.401 375.885 359.062Z"/>
	<path fill="#8E99AE" transform="scale(0.666667 0.666667)" d="M590.289 395.39C590.336 395.23 591.162 394.623 591.306 394.501L596.388 390.062C600.561 386.06 604.199 381.171 607.476 376.418C611.346 370.804 614.952 364.904 618.01 358.804L624.023 346.022C626.825 339.429 629.266 332.638 632.847 326.408C634.259 323.951 635.789 321.374 638.062 319.627L638.669 320.224C639.355 328.057 641.713 336.127 644.017 343.639C645.493 348.451 647.018 354.876 651.064 358.238C653.031 359.873 655.335 360.744 657.767 361.409C660.283 362.097 667.986 362.868 669.325 365.062C669.563 365.453 669.593 365.938 669.727 366.375C669.344 368.478 668.821 369.797 667.591 371.548C664.194 376.384 659.487 380.552 655.311 384.716C647.096 392.906 638.875 401.137 629.846 408.445L611.603 421.878L565.122 448.367C550.482 454.498 535.491 459.438 520.343 464.129C490.068 473.503 458.98 480.649 427.5 484.497C396.234 488.319 364.425 488.853 333 487.13C308.835 485.804 285.051 483.006 261.46 477.449C250.476 474.861 239.685 472.603 228.968 468.955C226.268 468.036 223.401 467.298 220.797 466.131L220.585 465.999C220.572 464.023 220.376 462.23 219.588 460.394C218.819 458.603 217.511 457.088 215.92 455.971C213.614 454.353 210.938 454.108 208.474 452.904C206.785 452.079 205.262 450.936 203.615 450.032C201.089 448.647 198.473 447.565 195.809 446.478L195.938 446.175L206.268 449.649L235.688 457.339C255.49 461.862 275.98 464.266 296.167 466.334L320.062 468.727C380.589 472.92 441.455 469.534 500.285 454.144C520.581 448.834 539.593 439.616 557.451 428.745C569.264 421.555 581.472 413.934 588.635 401.681C589.439 400.306 591.587 397.209 591.217 395.812L590.289 395.39Z"/>
</svg>
